<?xml version="1.0" encoding="utf-8"?>
<!-- Generator: Adobe Illustrator 16.2.1, SVG Export Plug-In . SVG Version: 6.00 Build 0)  -->
<!DOCTYPE svg PUBLIC "-//W3C//DTD SVG 1.1//EN" "http://www.w3.org/Graphics/SVG/1.1/DTD/svg11.dtd">
<svg version="1.1" id="Layer_1" xmlns="http://www.w3.org/2000/svg" xmlns:xlink="http://www.w3.org/1999/xlink" x="0px" y="0px"
	 width="56.693px" height="56.693px" viewBox="0 0 56.693 56.693" enable-background="new 0 0 56.693 56.693" xml:space="preserve">
<g>
	<path fill="#474A56" d="M50.08,27.266l-3.8-6.608c-0.197-0.389-0.417-0.764-0.666-1.118c-0.036-0.052-0.069-0.104-0.112-0.148
		c-1.105-1.514-2.666-2.673-4.483-3.266c-0.221-2.567-2.379-4.594-5.003-4.594c-2.771,0-5.024,2.254-5.024,5.025
		c0,0.777,0.183,1.515,0.502,2.174c-0.688,0.773-1.242,1.664-1.63,2.64c-0.458-0.165-0.949-0.262-1.462-0.262
		c-0.515,0-1.003,0.097-1.461,0.262c-0.407-1.019-0.995-1.944-1.726-2.744c0.288-0.632,0.452-1.331,0.452-2.068
		c0-2.771-2.254-5.025-5.023-5.025c-2.644,0-4.812,2.054-5.006,4.647c-1.759,0.606-3.266,1.739-4.342,3.211
		c-0.041,0.046-0.073,0.098-0.109,0.148c-0.249,0.354-0.47,0.729-0.667,1.118l-3.798,6.608c-2.012,2.117-3.256,4.971-3.256,8.113
		c0,6.508,5.297,11.802,11.805,11.802c4.878,0,9.072-2.976,10.869-7.204c0.683,0.338,1.447,0.531,2.261,0.531
		c0.812,0,1.578-0.193,2.261-0.531c1.796,4.229,5.991,7.204,10.87,7.204c6.507,0,11.802-5.294,11.802-11.802
		C53.333,32.236,52.088,29.384,50.08,27.266z M15.27,43.034c-4.223,0-7.655-3.433-7.655-7.653c0-2.539,1.248-4.787,3.159-6.182
		c1.265-0.922,2.813-1.473,4.496-1.473c3.316,0,6.141,2.125,7.198,5.083c0.288,0.806,0.454,1.668,0.454,2.57
		C22.923,39.601,19.492,43.034,15.27,43.034z M29.776,36.329c-0.302,0.438-0.806,0.725-1.376,0.725s-1.073-0.287-1.375-0.725
		c-0.188-0.271-0.299-0.596-0.299-0.948c0-0.176,0.033-0.34,0.085-0.499c0.05-0.16,0.118-0.312,0.214-0.449
		c0.302-0.438,0.805-0.727,1.375-0.727s1.074,0.289,1.376,0.727c0.093,0.137,0.162,0.289,0.214,0.449
		c0.05,0.159,0.084,0.323,0.084,0.499C30.074,35.733,29.963,36.058,29.776,36.329z M41.531,43.034c-4.22,0-7.654-3.433-7.654-7.653
		c0-0.902,0.165-1.766,0.454-2.57c1.06-2.958,3.881-5.083,7.2-5.083c1.68,0,3.233,0.551,4.495,1.473
		c1.91,1.396,3.158,3.643,3.158,6.182C49.184,39.601,45.751,43.034,41.531,43.034z"/>
	<path fill="#474A56" d="M15.268,30.119c-1.128,0-2.172,0.363-3.03,0.971c-1.345,0.953-2.229,2.521-2.229,4.291
		c0,0.572,0.464,1.036,1.036,1.036c0.573,0,1.038-0.464,1.038-1.036c0-0.481,0.114-0.936,0.31-1.347
		c0.315-0.673,0.857-1.214,1.528-1.53c0.027-0.014,0.055-0.03,0.082-0.045c0.39-0.168,0.814-0.264,1.265-0.264
		c0.573,0,1.037-0.465,1.037-1.038C16.305,30.585,15.842,30.119,15.268,30.119z"/>
	<path fill="#474A56" d="M41.422,30.119c-2.251,0-4.172,1.426-4.919,3.418c-0.218,0.574-0.341,1.193-0.341,1.844
		c0,0.572,0.464,1.036,1.037,1.036s1.036-0.464,1.036-1.036c0-0.481,0.117-0.936,0.311-1.347c0.057-0.12,0.118-0.235,0.188-0.348
		c0.322-0.513,0.788-0.923,1.343-1.184c0.408-0.192,0.861-0.309,1.345-0.309c0.574,0,1.037-0.465,1.037-1.038
		C42.459,30.585,41.996,30.119,41.422,30.119z"/>
</g>
</svg>
