<?xml version="1.0" encoding="utf-8"?>
<!-- Generator: Adobe Illustrator 16.2.1, SVG Export Plug-In . SVG Version: 6.00 Build 0)  -->
<!DOCTYPE svg PUBLIC "-//W3C//DTD SVG 1.1//EN" "http://www.w3.org/Graphics/SVG/1.1/DTD/svg11.dtd">
<svg version="1.1" id="Layer_1" xmlns="http://www.w3.org/2000/svg" xmlns:xlink="http://www.w3.org/1999/xlink" x="0px" y="0px"
	 width="56.693px" height="56.693px" viewBox="0 0 56.693 56.693" enable-background="new 0 0 56.693 56.693" xml:space="preserve">
<g>
	<path fill="#C0392B" d="M16.696,5.053H6.401c-0.948,0-1.717,0.77-1.717,1.717v10.295c0,0.947,0.769,1.716,1.717,1.716h10.295
		c0.947,0,1.715-0.769,1.715-1.716V6.77C18.411,5.823,17.644,5.053,16.696,5.053z M14.979,15.348H8.118V8.487h6.861V15.348z"/>
	<path fill="#2980B9" d="M16.696,21.801H6.401c-0.948,0-1.717,0.771-1.717,1.718v10.295c0,0.946,0.769,1.715,1.717,1.715h10.295
		c0.947,0,1.715-0.769,1.715-1.715V23.518C18.411,22.571,17.644,21.801,16.696,21.801z M14.979,32.097H8.118v-6.862h6.861V32.097z"
		/>
	<path fill="#8E44AD" d="M16.696,38.55H6.401c-0.948,0-1.717,0.771-1.717,1.718V50.56c0,0.946,0.769,1.717,1.717,1.717h10.295
		c0.947,0,1.715-0.771,1.715-1.717V40.267C18.411,39.319,17.644,38.55,16.696,38.55z M14.979,48.845H8.118v-6.863h6.861V48.845z"/>
	<path fill="#9B59B6" d="M33.856,5.053H23.562c-0.947,0-1.716,0.77-1.716,1.717v10.295c0,0.947,0.769,1.716,1.716,1.716h10.295
		c0.947,0,1.716-0.769,1.716-1.716V6.77C35.572,5.823,34.804,5.053,33.856,5.053z M32.141,15.348h-6.862V8.487h6.862V15.348z"/>
	<path fill="#474A56" d="M33.856,21.801H23.562c-0.947,0-1.716,0.771-1.716,1.718v10.295c0,0.946,0.769,1.715,1.716,1.715h10.295
		c0.947,0,1.716-0.769,1.716-1.715V23.518C35.572,22.571,34.804,21.801,33.856,21.801z M32.141,32.097h-6.862v-6.862h6.862V32.097z"
		/>
	<path fill="#F1C40F" d="M33.856,38.55H23.562c-0.947,0-1.716,0.771-1.716,1.718V50.56c0,0.946,0.769,1.717,1.716,1.717h10.295
		c0.947,0,1.716-0.771,1.716-1.717V40.267C35.572,39.319,34.804,38.55,33.856,38.55z M32.141,48.845h-6.862v-6.863h6.862V48.845z"/>
	<path fill="#16A085" d="M51.017,5.053H40.723c-0.948,0-1.717,0.77-1.717,1.717v10.295c0,0.947,0.769,1.716,1.717,1.716h10.294
		c0.947,0,1.718-0.769,1.718-1.716V6.77C52.734,5.823,51.965,5.053,51.017,5.053z M49.302,15.348h-6.862V8.487h6.862V15.348z"/>
	<path fill="#D35400" d="M51.017,21.801H40.723c-0.948,0-1.717,0.771-1.717,1.718v10.295c0,0.946,0.769,1.715,1.717,1.715h10.294
		c0.947,0,1.718-0.769,1.718-1.715V23.518C52.734,22.571,51.965,21.801,51.017,21.801z M49.302,32.097h-6.862v-6.862h6.862V32.097z"
		/>
	<path fill="#3498DB" d="M51.017,38.55H40.723c-0.948,0-1.717,0.771-1.717,1.718V50.56c0,0.946,0.769,1.717,1.717,1.717h10.294
		c0.947,0,1.718-0.771,1.718-1.717V40.267C52.734,39.319,51.965,38.55,51.017,38.55z M49.302,48.845h-6.862v-6.863h6.862V48.845z"/>
</g>
</svg>
