<?xml version="1.0" encoding="utf-8"?>
<!-- Generator: Adobe Illustrator 17.0.0, SVG Export Plug-In . SVG Version: 6.00 Build 0)  -->
<!DOCTYPE svg PUBLIC "-//W3C//DTD SVG 1.1//EN" "http://www.w3.org/Graphics/SVG/1.1/DTD/svg11.dtd">
<svg version="1.1" id="Layer_1" xmlns="http://www.w3.org/2000/svg" xmlns:xlink="http://www.w3.org/1999/xlink" x="0px" y="0px"
	 width="56.693px" height="56.693px" viewBox="0 0 56.693 56.693" enable-background="new 0 0 56.693 56.693" xml:space="preserve">
<g>
	<g>
		<path fill="#474A56" d="M52.309,49.863L46.11,40.53c-0.001-0.002-0.001-0.005-0.003-0.006L28.581,14.131
			c-0.001-0.001-0.002-0.001-0.003-0.002c0-0.002,0-0.004-0.001-0.005l-6.268-9.439c-0.247-0.377-0.81-0.466-1.218-0.195
			l-4.615,3.064c-0.422,0.28-0.553,0.804-0.296,1.194l6.264,9.431c0.001,0.003,0.003,0.004,0.005,0.006
			c0.001,0.002,0.001,0.004,0.002,0.005l17.536,26.411c0.001,0.002,0.003,0.003,0.005,0.005l6.191,9.323
			c0.147,0.225,0.402,0.359,0.683,0.359c0.189,0,0.375-0.059,0.534-0.166l4.614-3.066C52.433,50.78,52.565,50.257,52.309,49.863z
			 M23.501,16.495L18.15,8.438l3.105-2.062l5.348,8.058L23.501,16.495z M47.234,52.235l-5.281-7.954l3.102-2.061l5.282,7.953
			L47.234,52.235z"/>
	</g>
	<g>
		<path fill="#E74C3C" d="M17.372,26.869c0.065,0,0.129-0.019,0.183-0.06c0.106-0.077,0.152-0.213,0.113-0.34l-0.993-3.243
			l2.73-2.047c0.106-0.079,0.149-0.217,0.108-0.343c-0.04-0.126-0.156-0.211-0.287-0.214l-3.428-0.069l-1.125-3.202
			c-0.044-0.123-0.161-0.207-0.292-0.207c-0.132,0-0.248,0.084-0.29,0.207l-1.126,3.202l-3.428,0.069
			c-0.131,0.003-0.248,0.088-0.288,0.214c-0.04,0.126,0.003,0.264,0.109,0.343l2.73,2.047l-0.993,3.243
			c-0.038,0.127,0.007,0.263,0.113,0.34c0.106,0.079,0.25,0.081,0.358,0.005l2.815-1.938l2.816,1.938
			C17.251,26.851,17.31,26.869,17.372,26.869z"/>
	</g>
	<g>
		<path fill="#27AE60" d="M21.723,32.689l-2.295-0.047l-0.753-2.143c-0.028-0.083-0.107-0.138-0.194-0.138
			c-0.088,0-0.166,0.055-0.195,0.138l-0.753,2.143l-2.295,0.047c-0.088,0.001-0.165,0.059-0.192,0.144
			c-0.027,0.085,0.003,0.175,0.072,0.228l1.827,1.372l-0.664,2.171c-0.025,0.083,0.005,0.177,0.076,0.227
			c0.071,0.053,0.168,0.054,0.24,0.004l1.885-1.298l1.884,1.298c0.036,0.024,0.077,0.037,0.117,0.037
			c0.044,0,0.086-0.014,0.123-0.041c0.071-0.05,0.101-0.143,0.076-0.227l-0.666-2.171l1.828-1.372c0.07-0.053,0.1-0.143,0.073-0.228
			C21.888,32.748,21.811,32.69,21.723,32.689z"/>
	</g>
	<g>
		<path fill="#3498DB" d="M9.183,28.642l-1.645-0.031l-0.54-1.539c-0.021-0.059-0.078-0.1-0.14-0.1c-0.063,0-0.118,0.041-0.14,0.1
			l-0.54,1.539l-1.645,0.031c-0.062,0.002-0.119,0.043-0.138,0.102c-0.019,0.06,0.002,0.126,0.052,0.163l1.311,0.983L5.28,31.449
			c-0.018,0.061,0.003,0.125,0.055,0.163c0.051,0.036,0.12,0.038,0.171,0.001l1.352-0.928l1.351,0.928
			c0.026,0.018,0.055,0.028,0.084,0.028c0.031,0,0.062-0.011,0.088-0.029c0.05-0.038,0.072-0.103,0.053-0.163l-0.476-1.558
			l1.311-0.983c0.051-0.037,0.072-0.104,0.053-0.163C9.302,28.685,9.246,28.644,9.183,28.642z"/>
	</g>
</g>
</svg>
