<?xml version="1.0" encoding="utf-8"?>
<!-- Generator: Adobe Illustrator 16.2.1, SVG Export Plug-In . SVG Version: 6.00 Build 0)  -->
<!DOCTYPE svg PUBLIC "-//W3C//DTD SVG 1.1//EN" "http://www.w3.org/Graphics/SVG/1.1/DTD/svg11.dtd">
<svg version="1.1" id="Layer_1" xmlns="http://www.w3.org/2000/svg" xmlns:xlink="http://www.w3.org/1999/xlink" x="0px" y="0px"
	 width="56.693px" height="56.693px" viewBox="0 0 56.693 56.693" enable-background="new 0 0 56.693 56.693" xml:space="preserve">
<path fill="#474A56" d="M41.726,17.307v-0.006c-0.188-0.006-2.511-0.066-5.518,1.281c-0.004,0.002-0.008,0.004-0.012,0.006
	c-0.157,0.07-0.318,0.146-0.479,0.226c-0.018,0.01-0.035,0.018-0.054,0.026c-0.668,0.328-1.365,0.729-2.074,1.216
	c-0.014,0.01-0.026,0.019-0.041,0.026c-0.172,0.119-0.346,0.242-0.52,0.371c-0.014,0.01-0.029,0.021-0.043,0.032
	c-0.707,0.528-1.424,1.144-2.136,1.861c-0.034,0.033-0.067,0.067-0.103,0.103c-0.163,0.166-0.325,0.338-0.486,0.514
	c-0.025,0.027-0.051,0.058-0.074,0.084c-0.502,0.556-0.997,1.162-1.482,1.826c-0.785,1.075-1.547,2.291-2.259,3.691
	c-0.091,0.178-0.188,0.338-0.278,0.506c0.002,0.003,0.002,0.005,0.004,0.007c-0.059,0.108-0.118,0.208-0.179,0.312
	c-0.104,0.185-0.211,0.366-0.318,0.543c-0.123,0.199-0.246,0.396-0.373,0.587c-0.093,0.139-0.185,0.274-0.279,0.409
	c-0.101,0.141-0.199,0.273-0.299,0.408c-0.148,0.197-0.3,0.39-0.449,0.571c-0.094,0.113-0.187,0.226-0.281,0.334
	c-0.104,0.121-0.209,0.239-0.316,0.354c-0.099,0.104-0.195,0.204-0.296,0.307c-0.165,0.169-0.33,0.33-0.497,0.484
	c-0.08,0.073-0.161,0.147-0.242,0.221c-0.113,0.099-0.226,0.197-0.338,0.291c-0.149,0.123-0.3,0.242-0.448,0.354
	c-0.117,0.089-0.233,0.171-0.35,0.253c-0.072,0.052-0.146,0.103-0.219,0.15c-0.193,0.131-0.385,0.252-0.574,0.365
	c-0.066,0.04-0.135,0.082-0.2,0.12c-0.113,0.064-0.227,0.128-0.339,0.188c-0.069,0.037-0.139,0.071-0.208,0.106
	c-0.18,0.092-0.355,0.177-0.53,0.256c-0.067,0.029-0.137,0.061-0.204,0.089c-0.103,0.044-0.205,0.087-0.306,0.126
	c-0.075,0.03-0.149,0.057-0.225,0.084c-0.149,0.057-0.295,0.106-0.438,0.152c-0.072,0.023-0.146,0.047-0.216,0.068
	c-0.084,0.024-0.166,0.051-0.246,0.071c-0.125,0.035-0.244,0.066-0.362,0.096c-0.068,0.017-0.134,0.03-0.201,0.045
	c-0.081,0.019-0.16,0.034-0.238,0.051c-0.051,0.011-0.103,0.021-0.151,0.029c-0.117,0.021-0.227,0.039-0.332,0.056
	c-0.017,0.002-0.033,0.006-0.051,0.008v-0.002c-0.641,0.092-1.052,0.084-1.117,0.082h-0.097c-4.174,0-7.568-3.396-7.568-7.568
	c0-4.175,3.396-7.569,7.568-7.569l0.097-0.002c0.235-0.007,4.921-0.098,8.9,4.719c0.749-1.388,1.54-2.612,2.358-3.688
	c-4.955-5.231-10.637-5.254-11.397-5.234C8.735,17.326,3.474,22.6,3.474,29.081c0,6.455,5.222,11.708,11.662,11.771v0.001
	c0.01,0,0.032,0.001,0.051,0.002c0.021,0,0.043,0.002,0.063,0.002l0,0c0.043,0,0.093,0.001,0.157,0.001
	c0.229,0,0.592-0.01,1.057-0.057V40.8c0.112-0.011,0.231-0.023,0.356-0.04c0.074-0.01,0.146-0.02,0.225-0.029
	c0.011-0.001,0.021-0.002,0.03-0.004c0.207-0.03,0.427-0.065,0.659-0.11c0,0,0.001,0,0.002,0c2.783-0.535,7.275-2.223,10.866-7.455
	c0.555-0.81,1.089-1.699,1.593-2.686c2.145-4.217,4.715-6.449,6.869-7.635c0.003-0.001,0.006-0.003,0.01-0.004
	c0.053-0.029,0.107-0.062,0.16-0.09v0.004c2.366-1.256,4.188-1.25,4.313-1.244l0.089,0.004c4.174,0,7.567,3.396,7.567,7.569
	c0,4.173-3.394,7.568-7.635,7.569c-0.231,0.007-4.572,0.011-8.649-4.814c-0.052,0.099-0.105,0.188-0.156,0.288
	c-0.66,1.298-1.374,2.445-2.119,3.469c4.813,4.993,9.927,5.267,10.92,5.267c0.039,0,0.072-0.001,0.099-0.002
	c6.482-0.016,11.751-5.291,11.751-11.775C53.416,22.616,48.179,17.355,41.726,17.307z"/>
</svg>
